<svg width="24" height="25" viewBox="0 0 24 25" fill="none" xmlns="http://www.w3.org/2000/svg">
<g id="help">
<path id="Vector" d="M11.95 18.1865C12.3 18.1865 12.596 18.0655 12.838 17.8235C13.0793 17.5821 13.2 17.2865 13.2 16.9365C13.2 16.5865 13.0793 16.2908 12.838 16.0495C12.596 15.8075 12.3 15.6865 11.95 15.6865C11.6 15.6865 11.304 15.8075 11.062 16.0495C10.8207 16.2908 10.7 16.5865 10.7 16.9365C10.7 17.2865 10.8207 17.5821 11.062 17.8235C11.304 18.0655 11.6 18.1865 11.95 18.1865ZM12.1 7.88646C12.5667 7.88646 12.9417 8.01546 13.225 8.27346C13.5083 8.53213 13.65 8.8698 13.65 9.28646C13.65 9.5698 13.5543 9.85713 13.363 10.1485C13.171 10.4405 12.9 10.7448 12.55 11.0615C12.05 11.4948 11.6833 11.9115 11.45 12.3115C11.2167 12.7115 11.1 13.1115 11.1 13.5115C11.1 13.7448 11.1877 13.9405 11.363 14.0985C11.5377 14.2571 11.7417 14.3365 11.975 14.3365C12.2083 14.3365 12.4167 14.2531 12.6 14.0865C12.7833 13.9198 12.9 13.7115 12.95 13.4615C13 13.1781 13.1127 12.9158 13.288 12.6745C13.4627 12.4325 13.75 12.1198 14.15 11.7365C14.6667 11.2531 15.0293 10.8115 15.238 10.4115C15.446 10.0115 15.55 9.5698 15.55 9.08646C15.55 8.23646 15.2293 7.54046 14.588 6.99846C13.946 6.45713 13.1167 6.18646 12.1 6.18646C11.4 6.18646 10.7793 6.3198 10.238 6.58646C9.696 6.85313 9.275 7.26146 8.975 7.81146C8.85833 8.02813 8.81667 8.24046 8.85 8.44846C8.88333 8.65713 9 8.82813 9.2 8.96146C9.41667 9.0948 9.65433 9.13646 9.913 9.08646C10.171 9.03646 10.3833 8.8948 10.55 8.66146C10.7333 8.41146 10.9543 8.2198 11.213 8.08646C11.471 7.95313 11.7667 7.88646 12.1 7.88646ZM12 22.1865C10.6333 22.1865 9.34167 21.9238 8.125 21.3985C6.90833 20.8738 5.846 20.1615 4.938 19.2615C4.02933 18.3615 3.31267 17.3031 2.788 16.0865C2.26267 14.8698 2 13.5698 2 12.1865C2 10.8031 2.26267 9.50313 2.788 8.28646C3.31267 7.0698 4.02933 6.01146 4.938 5.11146C5.846 4.21146 6.90833 3.4988 8.125 2.97346C9.34167 2.4488 10.6333 2.18646 12 2.18646C13.4 2.18646 14.7083 2.4488 15.925 2.97346C17.1417 3.4988 18.2 4.21146 19.1 5.11146C20 6.01146 20.7083 7.0698 21.225 8.28646C21.7417 9.50313 22 10.8031 22 12.1865C22 13.5698 21.7417 14.8698 21.225 16.0865C20.7083 17.3031 20 18.3615 19.1 19.2615C18.2 20.1615 17.1417 20.8738 15.925 21.3985C14.7083 21.9238 13.4 22.1865 12 22.1865Z" fill="#202020"/>
</g>
</svg>
